<svg width="51" height="73" viewBox="0 0 51 73" fill="none" xmlns="http://www.w3.org/2000/svg">
<path id="Vector 29" d="M5.67223 56.7801L6.3165 56.367L5.67223 56.7801ZM11.6267 1.25935C11.4723 0.865861 11.0283 0.67199 10.6348 0.826322L4.22257 3.34131C3.82908 3.49564 3.63521 3.93973 3.78954 4.33322C3.94388 4.7267 4.38797 4.92057 4.78145 4.76624L10.4812 2.5307L12.7167 8.23043C12.8711 8.62392 13.3152 8.81779 13.7086 8.66346C14.1021 8.50912 14.296 8.06503 14.1417 7.67155L11.6267 1.25935ZM10.9142 1.53879C10.2128 1.23259 10.2128 1.23261 10.2128 1.23263C10.2128 1.23264 10.2128 1.23267 10.2128 1.23268C10.2128 1.23272 10.2127 1.23277 10.2127 1.23282C10.2127 1.23293 10.2126 1.23307 10.2125 1.23324C10.2124 1.23358 10.2122 1.23405 10.2119 1.23464C10.2114 1.23582 10.2107 1.2375 10.2097 1.23968C10.2078 1.24404 10.2051 1.25038 10.2015 1.25869C10.1943 1.27531 10.1837 1.2998 10.1699 1.33196C10.1423 1.3963 10.1018 1.49136 10.0494 1.61572C9.94462 1.86443 9.79246 2.23035 9.60171 2.70193L11.0206 3.27586C11.2085 2.81143 11.3579 2.45229 11.46 2.20995C11.511 2.08878 11.5502 1.99683 11.5765 1.93552C11.5897 1.90486 11.5996 1.88187 11.6062 1.86672C11.6094 1.85915 11.6119 1.85353 11.6135 1.8499C11.6142 1.84809 11.6148 1.84677 11.6152 1.84595C11.6154 1.84554 11.6155 1.84525 11.6156 1.84509C11.6156 1.84501 11.6156 1.84496 11.6156 1.84494C11.6156 1.84493 11.6156 1.84493 11.6156 1.84494C11.6156 1.84494 11.6156 1.84495 11.6156 1.84495C11.6156 1.84497 11.6156 1.84498 10.9142 1.53879ZM8.4423 5.68571C8.10758 6.58001 7.7401 7.59031 7.35329 8.69904L8.79848 9.20324C9.18125 8.1061 9.54481 7.10659 9.8758 6.22225L8.4423 5.68571ZM6.33456 11.7248C6.0194 12.6958 5.6995 13.7164 5.38098 14.7784L6.84707 15.2181C7.1621 14.1677 7.47857 13.1581 7.79042 12.1973L6.33456 11.7248ZM4.49715 17.8559C4.22118 18.862 3.95076 19.8952 3.6902 20.9497L5.17613 21.3169C5.43339 20.2757 5.70051 19.2551 5.97325 18.2607L4.49715 17.8559ZM2.96475 24.0687C2.73957 25.103 2.52695 26.1518 2.33057 27.2104L3.83551 27.4896C4.02883 26.4475 4.2383 25.4142 4.46033 24.3943L2.96475 24.0687ZM1.7996 30.3721C1.64125 31.4296 1.50217 32.4923 1.38592 33.5555L2.90747 33.7219C3.02137 32.6802 3.15778 31.6376 3.31334 30.5987L1.7996 30.3721ZM1.10816 36.7594C1.04024 37.8379 0.999652 38.9127 0.99024 39.9787L2.5208 39.9922C2.52995 38.9558 2.56943 37.9087 2.63575 36.8556L1.10816 36.7594ZM1.06255 43.204C1.12334 44.2962 1.22263 45.3742 1.36497 46.4323L2.88192 46.2282C2.74534 45.2129 2.64957 44.1748 2.5908 43.1189L1.06255 43.204ZM1.94566 49.6265C2.19687 50.7037 2.50256 51.7525 2.86853 52.7655L4.30808 52.2454C3.96422 51.2936 3.67506 50.3028 3.43628 49.2789L1.94566 49.6265ZM4.19496 55.7689C4.45424 56.2558 4.73163 56.7309 5.02796 57.1931L6.3165 56.367C6.04316 55.9407 5.78653 55.5012 5.54599 55.0495L4.19496 55.7689ZM5.02796 57.1931C5.31326 57.6381 5.61532 58.0699 5.93296 58.4888L7.15262 57.564C6.85866 57.1763 6.57964 56.7775 6.3165 56.367L5.02796 57.1931ZM8.01424 60.8489C8.7561 61.5785 9.54951 62.2606 10.3854 62.8983L11.3138 61.6813C10.5249 61.0795 9.78043 60.4391 9.0875 59.7576L8.01424 60.8489ZM12.9647 64.6526C13.8434 65.1866 14.7542 65.6825 15.6893 66.1432L16.3658 64.7702C15.4677 64.3277 14.5967 63.8532 13.7595 63.3446L12.9647 64.6526ZM18.5185 67.4056C19.4699 67.7898 20.4381 68.1433 21.4161 68.4688L21.8993 67.0164C20.9492 66.7003 20.0111 66.3576 19.0915 65.9863L18.5185 67.4056ZM24.3653 69.3611C25.3591 69.6337 26.3564 69.8805 27.3505 70.1041L27.6863 68.6108C26.7137 68.3921 25.7395 68.1509 24.7701 67.885L24.3653 69.3611ZM30.3611 70.7156C31.383 70.9019 32.3942 71.0656 33.3869 71.2093L33.6062 69.6945C32.6307 69.5533 31.638 69.3926 30.6356 69.2098L30.3611 70.7156ZM36.4326 71.5979C37.486 71.7148 38.5068 71.8103 39.4845 71.8882L39.6061 70.3624C38.643 70.2857 37.638 70.1916 36.6013 70.0766L36.4326 71.5979ZM42.5426 72.0862C43.6597 72.142 44.6867 72.1754 45.6012 72.1939L45.6321 70.6636C44.7316 70.6454 43.7197 70.6125 42.619 70.5575L42.5426 72.0862ZM48.6591 72.2061C49.1499 72.1994 49.5336 72.1893 49.7955 72.1809C49.9265 72.1767 50.027 72.1729 50.0953 72.1701C50.1295 72.1687 50.1555 72.1676 50.1733 72.1668C50.1822 72.1664 50.1891 72.1661 50.1938 72.1658C50.1961 72.1657 50.198 72.1656 50.1993 72.1656C50.1999 72.1656 50.2005 72.1655 50.2009 72.1655C50.2011 72.1655 50.2012 72.1655 50.2013 72.1655C50.2014 72.1655 50.2015 72.1655 50.2015 72.1655C50.2015 72.1655 50.2016 72.1655 50.2016 72.1655C50.2016 72.1655 50.2016 72.1655 50.1645 71.4011C50.1273 70.6367 50.1273 70.6367 50.1274 70.6367C50.1274 70.6367 50.1274 70.6367 50.1274 70.6367C50.1274 70.6367 50.1274 70.6367 50.1274 70.6367C50.1274 70.6367 50.1274 70.6367 50.1273 70.6367C50.1272 70.6367 50.1269 70.6367 50.1265 70.6367C50.1257 70.6367 50.1243 70.6368 50.1225 70.6369C50.1187 70.6371 50.1129 70.6373 50.1051 70.6377C50.0893 70.6384 50.0653 70.6394 50.0332 70.6407C49.9691 70.6433 49.8729 70.647 49.7463 70.651C49.4933 70.6592 49.119 70.669 48.6381 70.6756L48.6591 72.2061Z" fill="white"/>
</svg>
