<svg width="19" height="18" viewBox="0 0 19 18" fill="none" xmlns="http://www.w3.org/2000/svg">
<path id="Vector" d="M9.7832 10.8C14.7512 10.8 18.7832 12.684 18.7832 15V18H0.783203V15C0.783203 12.684 4.8152 10.8 9.7832 10.8ZM17.5832 15C17.5832 13.344 14.0912 12 9.7832 12C5.4752 12 1.9832 13.344 1.9832 15V16.8H17.5832V15ZM9.7832 0C10.8971 0 11.9654 0.442499 12.7531 1.23015C13.5407 2.0178 13.9832 3.08609 13.9832 4.2C13.9832 5.31391 13.5407 6.3822 12.7531 7.16985C11.9654 7.9575 10.8971 8.4 9.7832 8.4C8.66929 8.4 7.60101 7.9575 6.81335 7.16985C6.0257 6.3822 5.5832 5.31391 5.5832 4.2C5.5832 3.08609 6.0257 2.0178 6.81335 1.23015C7.60101 0.442499 8.66929 0 9.7832 0ZM9.7832 1.2C8.98755 1.2 8.22449 1.51607 7.66188 2.07868C7.09927 2.64129 6.7832 3.40435 6.7832 4.2C6.7832 4.99565 7.09927 5.75871 7.66188 6.32132C8.22449 6.88393 8.98755 7.2 9.7832 7.2C10.5789 7.2 11.3419 6.88393 11.9045 6.32132C12.4671 5.75871 12.7832 4.99565 12.7832 4.2C12.7832 3.40435 12.4671 2.64129 11.9045 2.07868C11.3419 1.51607 10.5789 1.2 9.7832 1.2Z" fill="#001C30"/>
</svg>
