<svg width="36" height="36" viewBox="0 0 36 36" fill="none" xmlns="http://www.w3.org/2000/svg">
<g id="bi:phone" clip-path="url(#clip0_1_398)">
<g id="Group">
<path id="Vector" d="M24.7148 2.22656C25.295 2.22656 25.8514 2.45703 26.2616 2.86727C26.6719 3.2775 26.9023 3.8339 26.9023 4.41406V30.6641C26.9023 31.2442 26.6719 31.8006 26.2616 32.2109C25.8514 32.6211 25.295 32.8516 24.7148 32.8516H11.5898C11.0097 32.8516 10.4533 32.6211 10.043 32.2109C9.63281 31.8006 9.40234 31.2442 9.40234 30.6641V4.41406C9.40234 3.8339 9.63281 3.2775 10.043 2.86727C10.4533 2.45703 11.0097 2.22656 11.5898 2.22656H24.7148ZM11.5898 0.0390625C10.4295 0.0390625 9.31672 0.499999 8.49625 1.32047C7.67578 2.14094 7.21484 3.25374 7.21484 4.41406V30.6641C7.21484 31.8244 7.67578 32.9372 8.49625 33.7577C9.31672 34.5781 10.4295 35.0391 11.5898 35.0391H24.7148C25.8752 35.0391 26.988 34.5781 27.8084 33.7577C28.6289 32.9372 29.0898 31.8244 29.0898 30.6641V4.41406C29.0898 3.25374 28.6289 2.14094 27.8084 1.32047C26.988 0.499999 25.8752 0.0390625 24.7148 0.0390625L11.5898 0.0390625Z" fill="white"/>
<path id="Vector_2" d="M18.1523 30.6641C18.7325 30.6641 19.2889 30.4336 19.6991 30.0234C20.1094 29.6131 20.3398 29.0567 20.3398 28.4766C20.3398 27.8964 20.1094 27.34 19.6991 26.9298C19.2889 26.5195 18.7325 26.2891 18.1523 26.2891C17.5722 26.2891 17.0158 26.5195 16.6055 26.9298C16.1953 27.34 15.9648 27.8964 15.9648 28.4766C15.9648 29.0567 16.1953 29.6131 16.6055 30.0234C17.0158 30.4336 17.5722 30.6641 18.1523 30.6641Z" fill="white"/>
</g>
</g>
<defs>
<clipPath id="clip0_1_398">
<rect width="35" height="35" fill="white" transform="translate(0.652344 0.0390625)"/>
</clipPath>
</defs>
</svg>
