<svg width="21" height="20" viewBox="0 0 21 20" fill="none" xmlns="http://www.w3.org/2000/svg">
<path id="Vector" d="M20.5905 4.07628C20.5378 4.0129 20.4717 3.96191 20.397 3.92692C20.3223 3.89192 20.2408 3.87378 20.1584 3.87378H4.87711L4.39242 1.2019C4.3375 0.899322 4.17808 0.62563 3.94198 0.428588C3.70587 0.231547 3.40807 0.123669 3.10054 0.123779H1.40836C1.25917 0.123779 1.1161 0.183043 1.01061 0.288532C0.905119 0.394021 0.845856 0.537095 0.845856 0.686279C0.845856 0.835464 0.905119 0.978538 1.01061 1.08403C1.1161 1.18952 1.25917 1.24878 1.40836 1.24878H3.09586C3.14025 1.24806 3.18347 1.26311 3.2178 1.29127C3.25214 1.31942 3.27537 1.35885 3.28336 1.40253L5.67492 14.5557C5.75078 14.9752 5.95522 15.3608 6.25992 15.6591C5.89198 15.9534 5.61722 16.348 5.46888 16.7952C5.32055 17.2424 5.305 17.723 5.42412 18.1789C5.54324 18.6347 5.79192 19.0463 6.14007 19.3637C6.48822 19.6812 6.92092 19.891 7.3858 19.9676C7.85068 20.0443 8.32781 19.9846 8.75946 19.7957C9.19112 19.6069 9.55878 19.297 9.81797 18.9035C10.0772 18.51 10.2168 18.0499 10.2199 17.5787C10.223 17.1076 10.0895 16.6456 9.83554 16.2488H14.7312C14.4397 16.7049 14.3083 17.2452 14.3578 17.7843C14.4074 18.3233 14.6349 18.8306 15.0047 19.226C15.3744 19.6214 15.8652 19.8825 16.3998 19.9681C16.9343 20.0537 17.4821 19.9589 17.9568 19.6987C18.4315 19.4385 18.8061 19.0276 19.0215 18.5309C19.2368 18.0343 19.2807 17.48 19.1462 16.9557C19.0117 16.4313 18.7064 15.9666 18.2786 15.6349C17.8508 15.3032 17.3247 15.1234 16.7834 15.1238H7.70554C7.48599 15.1238 7.27338 15.0468 7.1048 14.9061C6.93621 14.7655 6.82234 14.5701 6.78304 14.3541L6.44554 12.4988H17.5427C18.0258 12.4989 18.4935 12.3295 18.8644 12.0201C19.2354 11.7107 19.4859 11.2809 19.5724 10.8057L20.7115 4.53659C20.7262 4.45569 20.723 4.37254 20.7021 4.29301C20.6812 4.21348 20.6431 4.1395 20.5905 4.07628ZM9.09586 17.5613C9.09586 17.8209 9.01888 18.0746 8.87466 18.2905C8.73044 18.5063 8.52546 18.6745 8.28563 18.7739C8.0458 18.8732 7.7819 18.8992 7.5273 18.8486C7.2727 18.7979 7.03883 18.6729 6.85528 18.4894C6.67172 18.3058 6.54672 18.0719 6.49607 17.8173C6.44543 17.5627 6.47142 17.2988 6.57076 17.059C6.6701 16.8192 6.83833 16.6142 7.05417 16.47C7.27001 16.3258 7.52377 16.2488 7.78336 16.2488C8.13145 16.2488 8.46529 16.3871 8.71143 16.6332C8.95757 16.8793 9.09586 17.2132 9.09586 17.5613ZM18.0959 17.5613C18.0959 17.8209 18.0189 18.0746 17.8747 18.2905C17.7304 18.5063 17.5255 18.6745 17.2856 18.7739C17.0458 18.8732 16.7819 18.8992 16.5273 18.8486C16.2727 18.7979 16.0388 18.6729 15.8553 18.4894C15.6717 18.3058 15.5467 18.0719 15.4961 17.8173C15.4454 17.5627 15.4714 17.2988 15.5708 17.059C15.6701 16.8192 15.8383 16.6142 16.0542 16.47C16.27 16.3258 16.5238 16.2488 16.7834 16.2488C17.1315 16.2488 17.4653 16.3871 17.7114 16.6332C17.9576 16.8793 18.0959 17.2132 18.0959 17.5613ZM18.4652 10.6041C18.4259 10.8201 18.3121 11.0155 18.1435 11.1561C17.9749 11.2968 17.7623 11.3738 17.5427 11.3738H6.24117L5.08242 4.99878H19.4843L18.4652 10.6041Z" fill="#001C30"/>
</svg>
