<svg width="35" height="24" viewBox="0 0 35 24" fill="none" xmlns="http://www.w3.org/2000/svg">
<g id="envelope ">
<path id="Vector" d="M31.168 0.0390625H3.82422C2.07422 0.0390625 0.652344 1.46094 0.652344 3.21094V20C0.652344 21.75 2.07422 23.1719 3.82422 23.1719H31.168C32.918 23.1719 34.3398 21.75 34.3398 20V3.21094C34.3398 1.46094 32.918 0.0390625 31.168 0.0390625ZM31.168 1.95312C31.4414 1.95312 31.6602 2.00781 31.8789 2.17188L18.2617 10.4297C17.7695 10.7031 17.2227 10.7031 16.7305 10.4297L3.11328 2.17188C3.33203 2.0625 3.55078 1.95312 3.82422 1.95312H31.168ZM31.168 21.2031H3.82422C3.16797 21.2031 2.56641 20.6562 2.56641 19.9453V4.08594L15.6914 12.0703C16.2383 12.3984 16.8398 12.5625 17.4414 12.5625C18.043 12.5625 18.6445 12.3984 19.1914 12.0703L32.3164 4.08594V19.9453C32.4258 20.6562 31.8242 21.2031 31.168 21.2031Z" fill="white"/>
</g>
</svg>
