<svg width="16" height="20" viewBox="0 0 16 20" fill="none" xmlns="http://www.w3.org/2000/svg">
<g id="Group 25">
<path id="Vector" d="M15.4473 8.2C15.4473 13.6 8.44727 19 8.44727 19C8.44727 19 1.44727 13.6 1.44727 8.2C1.44727 6.29044 2.18476 4.45909 3.49752 3.10883C4.81027 1.75857 6.59075 1 8.44727 1C10.3038 1 12.0843 1.75857 13.397 3.10883C14.7098 4.45909 15.4473 6.29044 15.4473 8.2Z" stroke="#22333B" stroke-linecap="round" stroke-linejoin="round"/>
<path id="Vector_2" d="M8.44727 10.9C9.89701 10.9 11.0723 9.69117 11.0723 8.2C11.0723 6.70883 9.89701 5.5 8.44727 5.5C6.99752 5.5 5.82227 6.70883 5.82227 8.2C5.82227 9.69117 6.99752 10.9 8.44727 10.9Z" stroke="#22333B" stroke-linecap="round" stroke-linejoin="round"/>
</g>
</svg>
