<svg width="25" height="24" viewBox="0 0 25 24" fill="none" xmlns="http://www.w3.org/2000/svg">
<g id="iconamoon:delivery-fast-light">
<g id="Group">
<path id="Vector" d="M2.44727 3V2.25C2.24835 2.25 2.05759 2.32902 1.91694 2.46967C1.77628 2.61032 1.69727 2.80109 1.69727 3H2.44727ZM13.4473 3H14.1973C14.1973 2.80109 14.1182 2.61032 13.9776 2.46967C13.8369 2.32902 13.6462 2.25 13.4473 2.25V3ZM13.4473 9V8.25C13.2484 8.25 13.0576 8.32902 12.9169 8.46967C12.7763 8.61032 12.6973 8.80109 12.6973 9H13.4473ZM2.44727 3.75H13.4473V2.25H2.44727V3.75ZM12.6973 3V19H14.1973V3H12.6973ZM3.19727 17V3H1.69727V17H3.19727ZM13.4473 9.75H18.4473V8.25H13.4473V9.75ZM21.6973 13V17H23.1973V13H21.6973ZM14.1973 19V9H12.6973V19H14.1973ZM19.3313 19.884C19.2152 20.0001 19.0774 20.0922 18.9257 20.1551C18.774 20.2179 18.6114 20.2502 18.4473 20.2502C18.2831 20.2502 18.1205 20.2179 17.9688 20.1551C17.8172 20.0922 17.6793 20.0001 17.5633 19.884L16.5033 20.944C17.019 21.4597 17.7184 21.7494 18.4478 21.7494C19.1771 21.7494 19.8765 21.4597 20.3923 20.944L19.3313 19.884ZM17.5633 18.116C17.6793 17.9999 17.8172 17.9078 17.9688 17.8449C18.1205 17.7821 18.2831 17.7498 18.4473 17.7498C18.6114 17.7498 18.774 17.7821 18.9257 17.8449C19.0774 17.9078 19.2152 17.9999 19.3313 18.116L20.3913 17.056C19.8755 16.5403 19.1761 16.2506 18.4468 16.2506C17.7174 16.2506 17.018 16.5403 16.5023 17.056L17.5633 18.116ZM7.33127 19.884C7.21519 20.0001 7.07737 20.0922 6.9257 20.1551C6.77402 20.2179 6.61145 20.2502 6.44727 20.2502C6.28309 20.2502 6.12051 20.2179 5.96884 20.1551C5.81716 20.0922 5.67934 20.0001 5.56327 19.884L4.50327 20.944C5.01899 21.4597 5.71844 21.7494 6.44777 21.7494C7.17709 21.7494 7.87654 21.4597 8.39227 20.944L7.33127 19.884ZM5.56327 18.116C5.67934 17.9999 5.81716 17.9078 5.96884 17.8449C6.12051 17.7821 6.28309 17.7498 6.44727 17.7498C6.61145 17.7498 6.77402 17.7821 6.9257 17.8449C7.07737 17.9078 7.21519 17.9999 7.33127 18.116L8.39127 17.056C7.87554 16.5403 7.17609 16.2506 6.44677 16.2506C5.71744 16.2506 5.01799 16.5403 4.50227 17.056L5.56327 18.116ZM19.3313 18.116C19.5753 18.36 19.6973 18.679 19.6973 19H21.1973C21.1973 18.297 20.9283 17.592 20.3923 17.055L19.3313 18.116ZM19.6973 19C19.6973 19.321 19.5753 19.64 19.3313 19.884L20.3923 20.944C20.648 20.689 20.8498 20.386 20.9881 20.0524C21.1264 19.7188 21.1975 19.3611 21.1973 19H19.6973ZM16.4473 18.25H13.4473V19.75H16.4473V18.25ZM17.5633 19.884C17.4469 19.7681 17.3547 19.6303 17.2919 19.4786C17.2291 19.3269 17.1969 19.1642 17.1973 19H15.6973C15.6973 19.703 15.9663 20.408 16.5023 20.945L17.5633 19.884ZM17.1973 19C17.1973 18.679 17.3193 18.36 17.5633 18.116L16.5023 17.056C16.2466 17.311 16.0447 17.614 15.9064 17.9476C15.7681 18.2812 15.697 18.6389 15.6973 19H17.1973ZM5.56327 19.884C5.44693 19.7681 5.3547 19.6303 5.29188 19.4786C5.22906 19.3269 5.19691 19.1642 5.19727 19H3.69727C3.69727 19.703 3.96627 20.408 4.50227 20.945L5.56327 19.884ZM5.19727 19C5.19727 18.679 5.31927 18.36 5.56327 18.116L4.50327 17.056C4.24761 17.3111 4.04481 17.6141 3.90649 17.9477C3.76818 18.2813 3.69708 18.6389 3.69727 19H5.19727ZM13.4473 18.25H8.44727V19.75H13.4473V18.25ZM7.33127 18.116C7.57527 18.36 7.69727 18.679 7.69727 19H9.19727C9.19727 18.297 8.92827 17.592 8.39227 17.055L7.33127 18.116ZM7.69727 19C7.69727 19.321 7.57527 19.64 7.33127 19.884L8.39127 20.944C8.64693 20.6889 8.84973 20.3859 8.98804 20.0523C9.12635 19.7187 9.19745 19.3611 9.19727 19H7.69727ZM21.6973 17C21.6973 17.69 21.1373 18.25 20.4473 18.25V19.75C21.1766 19.75 21.8761 19.4603 22.3918 18.9445C22.9075 18.4288 23.1973 17.7293 23.1973 17H21.6973ZM18.4473 9.75C19.3092 9.75 20.1359 10.0924 20.7454 10.7019C21.3549 11.3114 21.6973 12.138 21.6973 13H23.1973C23.1973 11.7402 22.6968 10.532 21.806 9.64124C20.9152 8.75045 19.707 8.25 18.4473 8.25V9.75ZM1.69727 17C1.69727 17.7293 1.987 18.4288 2.50272 18.9445C3.01845 19.4603 3.71792 19.75 4.44727 19.75V18.25C3.75727 18.25 3.19727 17.69 3.19727 17H1.69727Z" fill="#22333B"/>
<path id="Vector_2" d="M2.44727 8H5.44727M2.44727 12H7.44727" stroke="#22333B" stroke-width="1.5" stroke-linecap="round" stroke-linejoin="round"/>
</g>
</g>
</svg>
