<svg width="25" height="25" viewBox="0 0 25 25" fill="none" xmlns="http://www.w3.org/2000/svg">
<g id="Group 3664">
<g id="Group 3601">
<rect id="Rectangle 3063" x="0.752344" y="1.28359" width="22.8" height="22.8" rx="3.4" stroke="#EAE0D5" stroke-width="1.2"/>
</g>
<g id="Group 3602">
<path id="Vector" d="M19.1073 9.61366C19.0994 9.02485 18.9892 8.44189 18.7815 7.89087C18.6014 7.42608 18.3264 7.00397 17.9739 6.65151C17.6214 6.29905 17.1993 6.02398 16.7345 5.84389C16.1906 5.6397 15.6159 5.52929 15.0351 5.51737C14.2872 5.48394 14.0501 5.47461 12.1516 5.47461C10.2531 5.47461 10.0097 5.47461 9.26729 5.51737C8.68667 5.52938 8.1123 5.63979 7.5686 5.84389C7.10374 6.02386 6.68157 6.29888 6.32909 6.65136C5.97661 7.00383 5.70159 7.42601 5.52162 7.89087C5.31703 8.4344 5.20686 9.0089 5.19588 9.58956C5.16245 10.3382 5.15234 10.5753 5.15234 12.4738C5.15234 14.3723 5.15234 14.6149 5.19588 15.3581C5.20754 15.9396 5.31716 16.5134 5.52162 17.0584C5.70189 17.5231 5.97712 17.9451 6.32972 18.2974C6.68231 18.6497 7.10453 18.9246 7.56938 19.1046C8.11159 19.3169 8.68606 19.4353 9.26807 19.4544C10.0167 19.4878 10.2539 19.4979 12.1523 19.4979C14.0508 19.4979 14.2942 19.4979 15.0366 19.4544C15.6175 19.443 16.1922 19.3328 16.7361 19.1287C17.2007 18.9484 17.6228 18.6732 17.9752 18.3208C18.3276 17.9683 18.6028 17.5463 18.7831 17.0817C18.9875 16.5375 19.0971 15.9637 19.1088 15.3814C19.1422 14.6335 19.1523 14.3964 19.1523 12.4972C19.1508 10.5987 19.1508 10.3577 19.1073 9.61366ZM12.1469 16.064C10.1613 16.064 8.55283 14.4555 8.55283 12.4699C8.55283 10.4844 10.1613 8.87588 12.1469 8.87588C13.1001 8.87588 14.0143 9.25454 14.6883 9.92855C15.3623 10.6026 15.741 11.5167 15.741 12.4699C15.741 13.4232 15.3623 14.3373 14.6883 15.0113C14.0143 15.6854 13.1001 16.064 12.1469 16.064ZM15.884 9.58101C15.7739 9.58111 15.6649 9.5595 15.5632 9.51742C15.4615 9.47534 15.369 9.41361 15.2912 9.33577C15.2133 9.25793 15.1516 9.1655 15.1095 9.06377C15.0675 8.96205 15.0458 8.85302 15.0459 8.74293C15.0459 8.63293 15.0676 8.524 15.1097 8.42237C15.1518 8.32073 15.2135 8.22839 15.2913 8.1506C15.3691 8.07282 15.4614 8.01111 15.5631 7.96902C15.6647 7.92692 15.7736 7.90525 15.8836 7.90525C15.9936 7.90525 16.1026 7.92692 16.2042 7.96902C16.3058 8.01111 16.3982 8.07282 16.476 8.1506C16.5537 8.22839 16.6155 8.32073 16.6575 8.42237C16.6996 8.524 16.7213 8.63293 16.7213 8.74293C16.7213 9.20628 16.3466 9.58101 15.884 9.58101Z" fill="#EAE0D5"/>
<path id="Vector_2" d="M12.1471 14.805C13.4365 14.805 14.4818 13.7598 14.4818 12.4704C14.4818 11.181 13.4365 10.1357 12.1471 10.1357C10.8577 10.1357 9.8125 11.181 9.8125 12.4704C9.8125 13.7598 10.8577 14.805 12.1471 14.805Z" fill="#EAE0D5"/>
</g>
</g>
</svg>
