<svg width="21" height="21" viewBox="0 0 21 21" fill="none" xmlns="http://www.w3.org/2000/svg">
<g id="logos:whatsapp-icon" clip-path="url(#clip0_1_430)">
<path id="Vector" d="M1.26406 9.918C1.26359 11.5984 1.70609 13.2392 2.5475 14.6854L1.18359 19.6266L6.27984 18.3007C7.6894 19.0621 9.2687 19.4611 10.8736 19.4612H10.8778C16.1759 19.4612 20.4886 15.1834 20.4909 9.92552C20.4919 7.3777 19.4928 4.98188 17.6777 3.1794C15.8628 1.37708 13.4491 0.383975 10.8774 0.382812C5.57875 0.382812 1.26633 4.66033 1.26414 9.918" fill="url(#paint0_linear_1_430)"/>
<path id="Vector_2" d="M0.923438 9.91627C0.922891 11.6571 1.38125 13.3566 2.25266 14.8546L0.839844 19.9729L6.11883 18.5995C7.57336 19.3864 9.21102 19.8013 10.8774 19.8019H10.8817C16.3698 19.8019 20.8375 15.3703 20.8398 9.92418C20.8408 7.2848 19.8058 4.80286 17.9258 2.93581C16.0455 1.06898 13.5455 0.0401478 10.8817 0.0390625C5.39266 0.0390625 0.925625 4.47007 0.923438 9.91627ZM4.06719 14.5966L3.87008 14.2861C3.04148 12.9788 2.60414 11.4681 2.60477 9.91689C2.60656 5.39015 6.31938 1.70728 10.8848 1.70728C13.0958 1.70821 15.1736 2.5634 16.7364 4.11503C18.2991 5.66681 19.1591 7.72961 19.1585 9.92356C19.1565 14.4503 15.4436 18.1336 10.8817 18.1336H10.8784C9.39305 18.1329 7.93625 17.737 6.66578 16.9891L6.36344 16.8112L3.23078 17.6261L4.06719 14.5965V14.5966Z" fill="url(#paint1_linear_1_430)"/>
<path id="Vector_3" d="M8.39531 5.7839C8.20891 5.37281 8.01273 5.36452 7.83547 5.35731C7.69031 5.35111 7.52437 5.35157 7.35859 5.35157C7.19266 5.35157 6.92305 5.41351 6.69516 5.66041C6.46703 5.90754 5.82422 6.50475 5.82422 7.7194C5.82422 8.93413 6.71586 10.108 6.84016 10.2729C6.96461 10.4375 8.56148 13.0099 11.0905 13.9995C13.1924 14.8219 13.6202 14.6583 14.0763 14.6171C14.5326 14.576 15.5485 14.02 15.7558 13.4435C15.9632 12.8671 15.9632 12.373 15.901 12.2697C15.8388 12.1668 15.6729 12.1051 15.4241 11.9816C15.1752 11.8582 13.9519 11.2609 13.7238 11.1785C13.4957 11.0961 13.3298 11.0551 13.1639 11.3023C12.998 11.5491 12.5215 12.1051 12.3762 12.2697C12.2312 12.4347 12.0859 12.4553 11.8372 12.3318C11.5882 12.2079 10.7869 11.9475 9.83617 11.1065C9.09648 10.4521 8.59711 9.64397 8.45195 9.39676C8.3068 9.14994 8.43641 9.01614 8.56117 8.89312C8.67297 8.7825 8.81008 8.60483 8.93461 8.46072C9.05867 8.31653 9.10008 8.21366 9.18305 8.04901C9.26609 7.88421 9.22453 7.74002 9.16242 7.61653C9.10008 7.49304 8.61656 6.27204 8.39531 5.7839Z" fill="white"/>
</g>
<defs>
<linearGradient id="paint0_linear_1_430" x1="966.547" y1="1924.76" x2="966.547" y2="0.382812" gradientUnits="userSpaceOnUse">
<stop stop-color="#1FAF38"/>
<stop offset="1" stop-color="#60D669"/>
</linearGradient>
<linearGradient id="paint1_linear_1_430" x1="1000.84" y1="1993.43" x2="1000.84" y2="0.0390625" gradientUnits="userSpaceOnUse">
<stop stop-color="#F9F9F9"/>
<stop offset="1" stop-color="white"/>
</linearGradient>
<clipPath id="clip0_1_430">
<rect width="20" height="20" fill="white" transform="translate(0.839844 0.0390625)"/>
</clipPath>
</defs>
</svg>
