<svg width="25" height="25" viewBox="0 0 25 25" fill="none" xmlns="http://www.w3.org/2000/svg">
<g id="material-symbols:call-sharp">
<path id="Vector" d="M20.7898 21.0391C18.6398 21.0391 16.5442 20.5641 14.5028 19.6141C12.4615 18.6641 10.6532 17.3974 9.07784 15.8141C7.50251 14.2307 6.23584 12.4181 5.27784 10.3761C4.31984 8.33406 3.84051 6.2384 3.83984 4.08906V3.56406C3.83984 3.38073 3.85651 3.20573 3.88984 3.03906H9.73984L10.6648 8.06406L7.81484 10.9391C8.51484 12.1391 9.39418 13.2641 10.4528 14.3141C11.5115 15.3641 12.6738 16.2724 13.9398 17.0391L16.8398 14.1391L21.8398 15.1391V20.9891C21.6732 21.0057 21.4982 21.0184 21.3148 21.0271C21.1315 21.0357 20.9565 21.0397 20.7898 21.0391Z" fill="white"/>
</g>
</svg>
