<svg width="25" height="25" viewBox="0 0 25 25" fill="none" xmlns="http://www.w3.org/2000/svg">
<g id="Group 3663">
<rect id="Rectangle 3062" x="0.752344" y="1.28359" width="22.8" height="22.8" rx="3.4" stroke="#EAE0D5" stroke-width="1.2"/>
<path id="Vector" d="M12.1284 5.98633C10.5 5.99738 8.92605 6.57196 7.67578 7.61178C6.42552 8.65161 5.57666 10.092 5.2744 11.6867C4.97215 13.2814 5.23529 14.9311 6.01881 16.3538C6.80234 17.7764 8.05755 18.8836 9.56972 19.4858C9.46809 18.823 9.46809 18.1487 9.56972 17.4859L10.3975 13.986C10.2665 13.6691 10.2017 13.3288 10.2069 12.9861C10.2069 12.0161 10.7738 11.2861 11.4762 11.2861C11.6035 11.2842 11.7296 11.3097 11.846 11.361C11.9625 11.4122 12.0664 11.4878 12.1507 11.5828C12.2351 11.6778 12.2978 11.7898 12.3347 11.9112C12.3715 12.0326 12.3816 12.1605 12.3642 12.2861C12.3642 12.8861 11.9829 13.786 11.7823 14.616C11.7391 14.7708 11.7339 14.9337 11.7673 15.0908C11.8006 15.248 11.8715 15.3949 11.9739 15.519C12.0763 15.6431 12.2071 15.7408 12.3554 15.8038C12.5037 15.8668 12.6651 15.8933 12.8258 15.881C14.07 15.881 15.0333 14.566 15.0333 12.6761C15.0458 12.292 14.9779 11.9096 14.8338 11.5532C14.6897 11.1968 14.4727 10.8742 14.1965 10.6061C13.9204 10.3379 13.5912 10.1301 13.2299 9.99579C12.8686 9.86151 12.4832 9.80374 12.0983 9.82618C11.6874 9.80859 11.2771 9.87428 10.8924 10.0193C10.5077 10.1643 10.1564 10.3856 9.86001 10.6698C9.56359 10.954 9.3281 11.2951 9.16783 11.6726C9.00755 12.0502 8.9258 12.4562 8.92754 12.8661C8.92196 13.4371 9.09755 13.9953 9.42924 14.461C9.45336 14.4877 9.47055 14.5199 9.47929 14.5548C9.48804 14.5896 9.48808 14.6261 9.47942 14.661C9.42423 14.881 9.30382 15.361 9.28375 15.456C9.26368 15.551 9.17839 15.611 9.04795 15.551C8.16996 15.141 7.6231 13.866 7.6231 12.8361C7.6231 10.6312 9.23358 8.60123 12.2639 8.60123C14.6972 8.60123 16.5936 10.3312 16.5936 12.6461C16.5936 15.056 15.0885 16.9959 12.9462 16.9959C12.6322 17.0068 12.3203 16.9393 12.0391 16.7996C11.7578 16.6599 11.5161 16.4524 11.3357 16.1959L10.8992 17.8609C10.69 18.5079 10.3965 19.1248 10.0263 19.6958C10.7085 19.8967 11.4171 19.9945 12.1284 19.9858C13.9913 19.9858 15.7778 19.2483 17.0951 17.9356C18.4123 16.6229 19.1523 14.8425 19.1523 12.9861C19.1523 11.1296 18.4123 9.34921 17.0951 8.0365C15.7778 6.7238 13.9913 5.98633 12.1284 5.98633Z" fill="#EAE0D5"/>
</g>
</svg>
