<svg width="46" height="39" viewBox="0 0 46 39" fill="none" xmlns="http://www.w3.org/2000/svg">
<g id="envelope ">
<g id="Group">
<path id="Vector" d="M36.2269 21.8735C36.1264 20.7179 35.1718 19.9141 34.0163 19.9141H12.6132C11.4576 19.9141 10.5532 20.7682 10.4025 21.8735L9.34743 32.4243C9.29719 33.0272 9.49816 33.6804 9.90009 34.1326C10.302 34.5847 10.9049 34.836 11.5581 34.836H35.1216C35.7245 34.836 36.3274 34.5847 36.7796 34.1326C37.1815 33.6804 37.3825 33.0775 37.3323 32.4243L36.2269 21.8735ZM35.4231 32.977C35.3728 33.0272 35.2723 33.1277 35.0714 33.1277H11.5581C11.4074 33.1277 11.2566 33.0272 11.2064 32.977C11.1561 32.9268 11.0557 32.8263 11.1059 32.6253L12.161 22.0242C12.161 21.773 12.362 21.6223 12.6132 21.6223H34.0665C34.3177 21.6223 34.4685 21.773 34.5187 22.0242L35.5738 32.6253C35.5235 32.776 35.4733 32.9268 35.4231 32.977Z" fill="white"/>
<path id="Vector_2" d="M23.3177 23.8359C21.3583 23.8359 19.8008 25.3934 19.8008 27.3529C19.8008 29.3123 21.3583 30.8698 23.3177 30.8698C25.2772 30.8698 26.8347 29.3123 26.8347 27.3529C26.8347 25.3934 25.2772 23.8359 23.3177 23.8359ZM23.3177 29.1114C22.3631 29.1114 21.5593 28.3075 21.5593 27.3529C21.5593 26.3983 22.3631 25.5944 23.3177 25.5944C24.2723 25.5944 25.0762 26.3983 25.0762 27.3529C25.0762 28.3075 24.2723 29.1114 23.3177 29.1114Z" fill="white"/>
<path id="Vector_3" d="M10.5541 13.1831C10.6546 15.3938 12.6141 16.2981 13.6189 16.2981H17.1359C17.1861 16.2981 17.1861 16.2981 17.1861 16.2981C18.6934 16.1976 20.2006 15.1928 20.2006 13.1831V11.9773C21.8586 11.9773 25.677 11.9773 27.335 11.9773V13.1831C27.335 15.1928 28.8423 16.1976 30.3495 16.2981H30.3998H33.8665C34.8713 16.2981 36.8307 15.3938 36.9312 13.1831C36.9312 13.0324 36.9312 12.4797 36.9312 11.9773C36.9312 11.5754 36.9312 11.2237 36.9312 11.1734C36.9312 11.1232 36.9312 11.073 36.9312 11.073C36.7805 9.66617 36.2781 8.51061 35.424 7.60625L35.3737 7.55601C34.1177 6.40044 32.6104 5.74729 31.4548 5.34536C28.0886 4.03906 23.8683 4.03906 23.6673 4.03906C20.703 4.0893 18.7938 4.34051 15.93 5.34536C14.8247 5.69705 13.3175 6.3502 12.0614 7.50576L12.0112 7.55601C11.1571 8.46036 10.6546 9.61593 10.5039 11.0227C10.5039 11.073 10.5039 11.1232 10.5039 11.1232C10.5039 11.2237 10.5039 11.5251 10.5039 11.9271C10.5541 12.3792 10.5541 12.9821 10.5541 13.1831ZM13.2672 8.76182C14.2721 7.85746 15.5281 7.3048 16.5832 6.90286C19.1958 5.94826 20.904 5.74729 23.7678 5.69705C23.9688 5.69705 27.8877 5.74729 30.9022 6.90286C31.9573 7.3048 33.2133 7.80722 34.2182 8.76182C34.7708 9.36472 35.1225 10.1686 35.223 11.1232C35.223 11.2739 35.223 11.5251 35.223 11.9271C35.223 12.4295 35.223 12.9821 35.223 13.1329C35.1728 14.2884 34.0674 14.5397 33.9167 14.5397H30.45C29.9476 14.4894 29.1437 14.2884 29.1437 13.1831V11.1232C29.1437 10.7213 28.8925 10.4198 28.5408 10.2691C28.2394 10.1686 19.447 10.1686 19.1455 10.2691C18.7938 10.3696 18.5426 10.7213 18.5426 11.1232V13.1831C18.5426 14.2884 17.7388 14.4894 17.2363 14.5397H13.7696C13.6189 14.5397 12.5136 14.2884 12.4633 13.1329C12.4633 12.9821 12.4633 12.4295 12.4633 11.9271C12.4633 11.5251 12.4633 11.3242 12.4633 11.1734C12.3629 10.1686 12.7146 9.36472 13.2672 8.76182Z" fill="white"/>
</g>
</g>
</svg>
