<svg width="25" height="25" viewBox="0 0 25 25" fill="none" xmlns="http://www.w3.org/2000/svg">
<g id="Group 3597">
<rect id="Rectangle 3064" x="0.152344" y="0.683594" width="24" height="24" rx="4" fill="#EAE0D5"/>
<g id="Group">
<path id="Vector" d="M18.1523 9.82001C17.7107 10.012 17.2367 10.144 16.7387 10.2016C17.2475 9.90161 17.6363 9.42641 17.8211 8.86121C17.3363 9.14377 16.8073 9.34255 16.2563 9.44921C16.0246 9.20629 15.7458 9.01313 15.4369 8.88151C15.1281 8.74988 14.7957 8.68254 14.4599 8.68361C13.1003 8.68361 11.9987 9.76961 11.9987 11.1076C11.9987 11.2972 12.0203 11.482 12.0623 11.6596C11.0871 11.6133 10.1323 11.3642 9.25872 10.9283C8.38516 10.4923 7.61205 9.87904 6.98874 9.12761C6.76982 9.49613 6.65456 9.91696 6.65514 10.3456C6.65514 11.1856 7.09074 11.9296 7.75074 12.3628C7.36008 12.3506 6.97778 12.2466 6.63474 12.0592V12.0892C6.63845 12.6526 6.8373 13.1972 7.19744 13.6304C7.55758 14.0636 8.05675 14.3587 8.60994 14.4652C8.24677 14.5612 7.86677 14.5752 7.49754 14.506C7.6585 14.9906 7.96635 15.4132 8.37837 15.7149C8.79039 16.0166 9.28612 16.1825 9.79674 16.1896C8.9207 16.8647 7.84511 17.2294 6.73914 17.2264C6.54114 17.2264 6.34554 17.2144 6.15234 17.1928C7.28091 17.9072 8.5895 18.2855 9.92514 18.2836C14.4539 18.2836 16.9295 14.59 16.9295 11.386L16.9211 11.0716C17.4039 10.7323 17.8211 10.3083 18.1523 9.82001Z" fill="#22333B"/>
</g>
</g>
</svg>
