<svg width="21" height="18" viewBox="0 0 21 18" fill="none" xmlns="http://www.w3.org/2000/svg">
<path id="Vector" d="M14.8287 0C12.9196 0 11.2596 0.906583 10.2832 2.42585C9.30684 0.906583 7.64684 0 5.73775 0C4.29163 0.00177354 2.90522 0.607505 1.88266 1.68432C0.860102 2.76113 0.284887 4.22109 0.283203 5.74393C0.283203 8.5393 1.93775 11.4486 5.20139 14.3895C6.69688 15.7314 8.31231 16.9177 10.025 17.9316C10.1044 17.9765 10.1931 18 10.2832 18C10.3733 18 10.462 17.9765 10.5414 17.9316C12.2541 16.9177 13.8695 15.7314 15.365 14.3895C18.6287 11.4486 20.2832 8.5393 20.2832 5.74393C20.2815 4.22109 19.7063 2.76113 18.6837 1.68432C17.6612 0.607505 16.2748 0.00177354 14.8287 0ZM10.2832 16.7636C8.79139 15.8571 1.37411 11.0781 1.37411 5.74393C1.37532 4.52561 1.83544 3.35755 2.65352 2.49607C3.4716 1.63459 4.58081 1.15005 5.73775 1.14879C7.58139 1.14879 9.12957 2.18556 9.77866 3.85513C9.81975 3.96048 9.88966 4.05059 9.9795 4.114C10.0693 4.17742 10.175 4.21127 10.2832 4.21127C10.3914 4.21127 10.4971 4.17742 10.5869 4.114C10.6767 4.05059 10.7467 3.96048 10.7877 3.85513C11.4368 2.18556 12.985 1.14879 14.8287 1.14879C15.9856 1.15005 17.0948 1.63459 17.9129 2.49607C18.731 3.35755 19.1911 4.52561 19.1923 5.74393C19.1923 11.0781 11.775 15.8571 10.2832 16.7636Z" fill="#001C30"/>
</svg>
